<svg width="32" height="32" viewBox="0 0 32 32" fill="none" xmlns="http://www.w3.org/2000/svg">
<path d="M18.6847 18.8661L19.3818 19.583L19.3876 19.5774L19.3933 19.5717L18.6847 18.8661ZM18.6644 18.8863L19.3701 19.5949L19.3758 19.5892L19.3814 19.5834L18.6644 18.8863ZM19.3409 20.9567L20.048 20.2496L19.4183 19.6199L18.7201 20.1727L19.3409 20.9567ZM20.7551 19.5424L19.971 18.9217L19.4183 19.6199L20.048 20.2495L20.7551 19.5424ZM8.7754 8.97719C5.83238 11.9202 5.82132 16.6801 8.75002 19.6088L10.1642 18.1945C8.02264 16.0529 8.02157 12.5595 10.1896 10.3914L8.7754 8.97719ZM19.407 8.95182C16.4783 6.02311 11.7184 6.03418 8.7754 8.97719L10.1896 10.3914C12.3577 8.22336 15.8512 8.22444 17.9927 10.366L19.407 8.95182ZM19.3933 19.5717C22.3246 16.6277 22.3318 11.8766 19.407 8.95182L17.9927 10.366C20.1315 12.5048 20.1354 15.9918 17.9761 18.1605L19.3933 19.5717ZM19.3816 19.5832C19.3817 19.5831 19.3817 19.5831 19.3818 19.583L17.9876 18.1491C17.9808 18.1557 17.9741 18.1623 17.9674 18.169L19.3816 19.5832ZM19.3814 19.5834C19.3814 19.5834 19.3815 19.5833 19.3816 19.5832L17.9674 18.169C17.9607 18.1757 17.9541 18.1824 17.9475 18.1892L19.3814 19.5834ZM8.75002 19.6088C11.6749 22.5336 16.4261 22.5264 19.3701 19.5949L17.9588 18.1777C15.7902 20.3372 12.303 20.3333 10.1642 18.1945L8.75002 19.6088ZM18.7201 20.1727C15.7641 22.513 11.4681 22.3268 8.75002 19.6088L7.33581 21.023C10.7856 24.4728 16.2251 24.699 19.9616 21.7407L18.7201 20.1727ZM8.75002 19.6088C5.82128 16.68 5.83241 11.9202 8.7754 8.97719L7.36118 7.56298C3.64375 11.2804 3.61944 17.3066 7.33581 21.023L8.75002 19.6088ZM8.7754 8.97719C11.7184 6.03421 16.4782 6.02308 19.407 8.95182L20.8212 7.53761C17.1048 3.82123 11.0786 3.84555 7.36118 7.56298L8.7754 8.97719ZM19.407 8.95182C22.125 11.6698 22.3112 15.9657 19.971 18.9217L21.5391 20.1631C24.4972 16.4266 24.2709 10.9874 20.8212 7.53761L19.407 8.95182ZM20.048 20.2495L22.9003 23.1019L24.3146 21.6877L21.4622 18.8353L20.048 20.2495ZM22.9003 23.1019L24.3146 24.5161C25.0956 23.7351 25.0956 22.4688 24.3146 21.6877L22.9003 23.1019ZM22.9003 23.1019L21.4861 24.5161C22.2672 25.2972 23.5335 25.2972 24.3146 24.5161L22.9003 23.1019ZM22.9003 23.1019L20.048 20.2496L18.6338 21.6638L21.4861 24.5161L22.9003 23.1019Z" fill="#474747"/>
</svg>
