<svg width="119" height="54" viewBox="0 0 119 54" fill="none" xmlns="http://www.w3.org/2000/svg">
<path d="M70 11.1099V23.7644C70 26.6775 71.1749 29.5259 73.2269 31.5849C75.2776 33.644 78.1157 34.8249 81.0158 34.8249H101.805C107.889 34.8249 112.821 29.8731 112.821 23.7644C112.821 17.6557 107.889 12.7039 101.805 12.7039H92.0302V11.1086C92.0302 4.99992 87.0985 0.0480957 81.0145 0.0480957C74.9318 0.0506299 70 5.00245 70 11.1099Z" fill="#FFCB05"/>
<path d="M77.5302 6.98291L79.0017 6.30501C79.0017 6.12508 79.0017 5.91347 79.0017 5.66132C78.9903 5.58276 78.9815 5.5042 78.9689 5.42564C78.8376 4.56021 78.1486 3.8367 77.2955 3.66817C77.2072 3.65043 77.1176 3.63776 77.0292 3.62256C76.9157 3.62256 76.8008 3.62256 76.6872 3.62256C76.5989 3.63776 76.5093 3.65043 76.421 3.66817C75.5679 3.8367 74.8788 4.56021 74.7476 5.42564C74.7362 5.5042 74.7261 5.58276 74.7148 5.66132C74.7148 8.27915 74.7148 6.60404 74.7148 9.22187C74.7261 9.30043 74.735 9.37899 74.7476 9.45755C74.8788 10.323 75.5679 11.0465 76.421 11.215C76.5093 11.2328 76.5989 11.2454 76.6872 11.2606C76.8008 11.2606 76.9157 11.2606 77.0292 11.2606C77.1176 11.2454 77.2072 11.2328 77.2955 11.215C78.1486 11.0465 78.8376 10.323 78.9689 9.45755C78.9802 9.37899 78.9903 9.30043 79.0017 9.22187C79.0017 8.56425 79.0017 8.17778 79.0017 7.92563L77.5302 6.98291Z" fill="#121212"/>
<path d="M83.5133 6.98291L84.9847 6.30501C84.9847 6.12508 84.9847 5.91347 84.9847 5.66132C84.9734 5.58276 84.9645 5.5042 84.9519 5.42564C84.8207 4.56021 84.1316 3.8367 83.2785 3.66817C83.1902 3.65043 83.1006 3.63776 83.0123 3.62256C82.8987 3.62256 82.7839 3.62256 82.6703 3.62256C82.5819 3.63776 82.4923 3.65043 82.404 3.66817C81.5509 3.8367 80.8619 4.56021 80.7306 5.42564C80.7193 5.5042 80.7092 5.58276 80.6978 5.66132C80.6978 8.27915 80.6978 6.60404 80.6978 9.22187C80.7092 9.30043 80.718 9.37899 80.7306 9.45755C80.8619 10.323 81.5509 11.0465 82.404 11.215C82.4923 11.2328 82.5819 11.2454 82.6703 11.2606C82.7839 11.2606 82.8987 11.2606 83.0123 11.2606C83.1006 11.2454 83.1902 11.2328 83.2785 11.215C84.1316 11.0465 84.8207 10.323 84.9519 9.45755C84.9633 9.37899 84.9734 9.30043 84.9847 9.22187C84.9847 8.56425 84.9847 8.17778 84.9847 7.92563L83.5133 6.98291Z" fill="#121212"/>
<path d="M105.085 27.9053C97.4466 27.9053 91.2542 21.6877 91.2542 14.0179V13.8874C91.2542 6.21766 97.4466 0 105.085 0C112.724 0 118.917 6.21766 118.917 13.8874V14.0179C118.917 21.6877 112.724 27.9053 105.085 27.9053Z" fill="#121212"/>
<path d="M113.178 6.91843V6.92097C113.194 6.99826 113.462 8.47823 113.462 10.4017C113.464 12.0616 113.259 14.0522 112.541 15.7476C112.183 16.5953 111.698 17.3695 111.052 18.003C110.406 18.6366 109.597 19.1345 108.567 19.4336C107.672 19.6921 106.813 19.8099 105.999 19.8099C103.889 19.8099 102.089 19.0167 100.814 17.7939C99.539 16.5712 98.7932 14.9202 98.7932 13.1982C98.7932 12.3327 98.9812 11.447 99.3888 10.5816C100.044 9.19288 100.881 8.33632 101.769 7.81554C102.657 7.29476 103.609 7.1085 104.499 7.1085C105.224 7.1085 105.906 7.23394 106.46 7.39993C106.736 7.48229 106.981 7.57479 107.18 7.66602C107.38 7.75599 107.536 7.84468 107.63 7.91184C108.254 8.35279 108.725 8.97874 109.04 9.68705C109.356 10.3941 109.512 11.181 109.512 11.9222C109.512 12.3378 109.463 12.7395 109.369 13.1019C109.226 13.6467 108.981 14.1029 108.659 14.4108C108.498 14.5654 108.319 14.6858 108.117 14.7681C107.915 14.8505 107.689 14.8974 107.431 14.8974C107.228 14.8974 107.064 15.0621 107.064 15.2661C107.064 15.4701 107.228 15.6348 107.431 15.6348C107.893 15.6348 108.315 15.5208 108.676 15.3142C108.946 15.1596 109.18 14.9556 109.379 14.7162C109.675 14.3576 109.891 13.9242 110.035 13.4478C110.177 12.9726 110.248 12.4544 110.248 11.9209C110.248 11.0771 110.073 10.1939 109.712 9.38548C109.351 8.57707 108.803 7.83961 108.054 7.3087C107.905 7.20353 107.715 7.09963 107.482 6.99319C107.134 6.83607 106.693 6.68149 106.186 6.56618C105.679 6.44961 105.107 6.37231 104.5 6.37231C103.509 6.37231 102.421 6.58139 101.399 7.17946C100.377 7.77753 99.433 8.76333 98.7263 10.2674C98.2733 11.2304 98.06 12.2263 98.06 13.1994C98.06 15.1368 98.8979 16.9754 100.308 18.3274C101.717 19.6807 103.705 20.5473 105.999 20.5473C106.882 20.5473 107.811 20.4194 108.769 20.1419C109.912 19.8124 110.836 19.246 111.564 18.5301C112.658 17.4556 113.312 16.0593 113.696 14.6211C114.079 13.1804 114.194 11.6916 114.194 10.4017C114.194 8.34519 113.899 6.79426 113.896 6.77905C113.859 6.57885 113.667 6.44834 113.467 6.48635C113.271 6.52563 113.141 6.71823 113.178 6.91843Z" fill="#FFCB05"/>
<rect y="35" width="93" height="18" rx="9" fill="url(#paint0_linear)"/>
<path d="M19.852 44.948L21.924 41.938V48H23.52V38.48H22.554L19.488 43.03L16.212 38.48H15.232V48H16.8V41.714L19.25 45.032L19.852 44.948ZM26.3144 40.118C26.5758 40.118 26.7951 40.0293 26.9724 39.852C27.1591 39.6653 27.2524 39.4413 27.2524 39.18C27.2524 38.928 27.1591 38.7133 26.9724 38.536C26.7951 38.3493 26.5758 38.256 26.3144 38.256C26.0624 38.256 25.8478 38.3493 25.6704 38.536C25.4931 38.7133 25.4044 38.928 25.4044 39.18C25.4044 39.4413 25.4884 39.6653 25.6564 39.852C25.8338 40.0293 26.0531 40.118 26.3144 40.118ZM27.1264 48V41.21H25.5444V48H27.1264ZM35.324 44.598C35.324 45.3073 35.1793 45.9327 34.89 46.474C34.6006 47.0153 34.19 47.4353 33.658 47.734C33.126 48.0327 32.5053 48.182 31.796 48.182C31.0866 48.182 30.4706 48.0327 29.948 47.734C29.4253 47.4353 29.0193 47.02 28.73 46.488C28.45 45.9467 28.31 45.3167 28.31 44.598C28.31 43.8887 28.45 43.268 28.73 42.736C29.0193 42.1947 29.43 41.7747 29.962 41.476C30.494 41.1773 31.1146 41.028 31.824 41.028C32.5333 41.028 33.1493 41.1773 33.672 41.476C34.204 41.7653 34.61 42.1807 34.89 42.722C35.1793 43.2633 35.324 43.8887 35.324 44.598ZM31.796 46.824C32.3653 46.824 32.8226 46.614 33.168 46.194C33.5226 45.774 33.7 45.2467 33.7 44.612C33.7 43.9493 33.5273 43.4127 33.182 43.002C32.846 42.582 32.3933 42.372 31.824 42.372C31.264 42.372 30.8066 42.582 30.452 43.002C30.1066 43.422 29.9293 43.954 29.92 44.598C29.92 45.2607 30.088 45.7973 30.424 46.208C30.7693 46.6187 31.2266 46.824 31.796 46.824ZM38.2173 48V38.116L36.6493 38.27V48H38.2173ZM46.5623 44.598C46.5623 45.3073 46.4176 45.9327 46.1283 46.474C45.8389 47.0153 45.4283 47.4353 44.8963 47.734C44.3643 48.0327 43.7436 48.182 43.0343 48.182C42.3249 48.182 41.7089 48.0327 41.1863 47.734C40.6636 47.4353 40.2576 47.02 39.9683 46.488C39.6883 45.9467 39.5483 45.3167 39.5483 44.598C39.5483 43.8887 39.6883 43.268 39.9683 42.736C40.2576 42.1947 40.6683 41.7747 41.2003 41.476C41.7323 41.1773 42.3529 41.028 43.0623 41.028C43.7716 41.028 44.3876 41.1773 44.9103 41.476C45.4423 41.7653 45.8483 42.1807 46.1283 42.722C46.4176 43.2633 46.5623 43.8887 46.5623 44.598ZM43.0343 46.824C43.6036 46.824 44.0609 46.614 44.4063 46.194C44.7609 45.774 44.9383 45.2467 44.9383 44.612C44.9383 43.9493 44.7656 43.4127 44.4203 43.002C44.0843 42.582 43.6316 42.372 43.0623 42.372C42.5023 42.372 42.0449 42.582 41.6903 43.002C41.3449 43.422 41.1676 43.954 41.1583 44.598C41.1583 45.2607 41.3263 45.7973 41.6623 46.208C42.0076 46.6187 42.4649 46.824 43.0343 46.824ZM55.9731 44.948L58.0451 41.938V48H59.6411V38.48H58.6751L55.6091 43.03L52.3331 38.48H51.3531V48H52.9211V41.714L55.3711 45.032L55.9731 44.948ZM68.2595 44.598C68.2595 45.3073 68.1148 45.9327 67.8255 46.474C67.5362 47.0153 67.1255 47.4353 66.5935 47.734C66.0615 48.0327 65.4408 48.182 64.7315 48.182C64.0222 48.182 63.4062 48.0327 62.8835 47.734C62.3608 47.4353 61.9548 47.02 61.6655 46.488C61.3855 45.9467 61.2455 45.3167 61.2455 44.598C61.2455 43.8887 61.3855 43.268 61.6655 42.736C61.9548 42.1947 62.3655 41.7747 62.8975 41.476C63.4295 41.1773 64.0502 41.028 64.7595 41.028C65.4688 41.028 66.0848 41.1773 66.6075 41.476C67.1395 41.7653 67.5455 42.1807 67.8255 42.722C68.1148 43.2633 68.2595 43.8887 68.2595 44.598ZM64.7315 46.824C65.3008 46.824 65.7582 46.614 66.1035 46.194C66.4582 45.774 66.6355 45.2467 66.6355 44.612C66.6355 43.9493 66.4628 43.4127 66.1175 43.002C65.7815 42.582 65.3288 42.372 64.7595 42.372C64.1995 42.372 63.7422 42.582 63.3875 43.002C63.0422 43.422 62.8648 43.954 62.8555 44.598C62.8555 45.2607 63.0235 45.7973 63.3595 46.208C63.7048 46.6187 64.1622 46.824 64.7315 46.824ZM71.1528 48V38.116L69.5848 38.27V48H71.1528ZM78.8398 44.556C78.8398 43.5293 78.5831 42.6847 78.0698 42.022C77.5565 41.3593 76.8005 41.028 75.8018 41.028C75.1205 41.028 74.5278 41.1773 74.0238 41.476C73.5291 41.7747 73.1465 42.1947 72.8758 42.736C72.6145 43.268 72.4838 43.8887 72.4838 44.598C72.4838 45.6993 72.8058 46.572 73.4498 47.216C74.1031 47.8507 75.0458 48.168 76.2778 48.168C77.1925 48.168 78.0278 47.9067 78.7838 47.384L78.3078 46.236C77.9065 46.4413 77.5611 46.5953 77.2718 46.698C76.9918 46.7913 76.6698 46.838 76.3058 46.838C74.9991 46.838 74.2758 46.2313 74.1358 45.018H78.8398V44.556ZM74.1638 43.968C74.2291 43.464 74.3971 43.072 74.6678 42.792C74.9478 42.512 75.3118 42.372 75.7598 42.372C76.1985 42.372 76.5485 42.5073 76.8098 42.778C77.0711 43.0487 77.2438 43.4453 77.3278 43.968H74.1638Z" fill="white"/>
<defs>
<linearGradient id="paint0_linear" x1="2.5" y1="45" x2="92" y2="44.5" gradientUnits="userSpaceOnUse">
<stop stop-color="#4DBEFD"/>
<stop offset="1" stop-color="#0388D3"/>
</linearGradient>
</defs>
</svg>
