<svg width="12" height="17" viewBox="0 0 12 17" fill="none" xmlns="http://www.w3.org/2000/svg">
<path d="M5.66668 0C2.54213 0 0 2.54213 0 5.66668C0 6.60467 0.234514 7.53469 0.680332 8.35958L5.35679 16.8174C5.41905 16.9301 5.53768 17 5.66668 17C5.79567 17 5.91431 16.9301 5.97656 16.8174L10.6547 8.35679C11.0988 7.53469 11.3334 6.60463 11.3334 5.66664C11.3334 2.54213 8.79122 0 5.66668 0ZM5.66668 8.5C4.1044 8.5 2.83336 7.22895 2.83336 5.66668C2.83336 4.1044 4.1044 2.83336 5.66668 2.83336C7.22895 2.83336 8.5 4.1044 8.5 5.66668C8.5 7.22895 7.22895 8.5 5.66668 8.5Z" fill="#7DBBB8"/>
</svg>