<svg width="13" height="20" viewBox="0 0 13 20" fill="none" xmlns="http://www.w3.org/2000/svg">
<path d="M12.7596 0.945656C12.7596 0.418029 12.3524 0 11.8248 0H0.916632C0.388572 0 0 0.418029 0 0.945656V20H4.1621V16.852C4.1621 16.5423 4.38606 16.2893 4.69449 16.2893H8.06082C8.36969 16.2893 8.59711 16.5423 8.59711 16.852V20H12.7588V0.945656H12.7596ZM5.61026 13.5195C5.61026 13.7001 5.46427 13.8465 5.2832 13.8465H3.31261C3.1324 13.8465 2.98555 13.7001 2.98555 13.5195V11.5489C2.98555 11.3682 3.1324 11.2214 3.31261 11.2214H5.2832C5.46427 11.2214 5.61026 11.3682 5.61026 11.5489V13.5195ZM5.61026 9.17499C5.61026 9.35563 5.46427 9.50205 5.2832 9.50205H3.31261C3.1324 9.50205 2.98555 9.35563 2.98555 9.17499V7.2044C2.98555 7.02376 3.1324 6.87734 3.31261 6.87734H5.2832C5.46427 6.87734 5.61026 7.02376 5.61026 7.2044V9.17499ZM5.61026 4.74084C5.61026 4.92148 5.46427 5.0679 5.2832 5.0679H3.31261C3.1324 5.0679 2.98555 4.92148 2.98555 4.74084V2.77026C2.98555 2.58962 3.1324 2.4432 3.31261 2.4432H5.2832C5.46427 2.4432 5.61026 2.58962 5.61026 2.77026V4.74084ZM9.77366 13.5195C9.77366 13.7001 9.62637 13.8465 9.44617 13.8465H7.47558C7.29451 13.8465 7.14852 13.7001 7.14852 13.5195V11.5489C7.14852 11.3682 7.29451 11.2214 7.47558 11.2214H9.44617C9.62637 11.2214 9.77366 11.3682 9.77366 11.5489V13.5195ZM9.77366 9.17499C9.77366 9.35563 9.62637 9.50205 9.44617 9.50205H7.47558C7.29451 9.50205 7.14852 9.35563 7.14852 9.17499V7.2044C7.14852 7.02376 7.29451 6.87734 7.47558 6.87734H9.44617C9.62637 6.87734 9.77366 7.02376 9.77366 7.2044V9.17499ZM9.77366 4.74084C9.77366 4.92148 9.62637 5.0679 9.44617 5.0679H7.47558C7.29451 5.0679 7.14852 4.92148 7.14852 4.74084V2.77026C7.14852 2.58962 7.29451 2.4432 7.47558 2.4432H9.44617C9.62637 2.4432 9.77366 2.58962 9.77366 2.77026V4.74084Z" fill="black"/>
</svg>