<svg width="979" height="702" viewBox="0 0 979 702" fill="none" xmlns="http://www.w3.org/2000/svg">
<path d="M0 0H979V102C979 433.371 710.371 702 379 702H0V0Z" fill="#7DBBB8"/>
<mask id="mask0" mask-type="alpha" maskUnits="userSpaceOnUse" x="134" y="0" width="845" height="702">
<path d="M134 0H979V102C979 433.371 710.371 702 379 702H134V0Z" fill="white"/>
</mask>
<g mask="url(#mask0)">
<circle opacity="0.1" cx="1056.52" cy="61.0238" r="311.807" stroke="white"/>
<g opacity="0.2">
<circle cx="145.077" cy="701.998" r="1.74965" transform="rotate(-90 145.077 701.998)" fill="white"/>
<circle cx="160.241" cy="701.998" r="1.74965" transform="rotate(-90 160.241 701.998)" fill="white"/>
<circle cx="175.404" cy="701.998" r="1.74965" transform="rotate(-90 175.404 701.998)" fill="white"/>
<circle cx="190.568" cy="701.998" r="1.74965" transform="rotate(-90 190.568 701.998)" fill="white"/>
<circle cx="205.731" cy="701.998" r="1.74965" transform="rotate(-90 205.731 701.998)" fill="white"/>
<circle cx="220.896" cy="701.998" r="1.74965" transform="rotate(-90 220.896 701.998)" fill="white"/>
<circle cx="236.058" cy="701.998" r="1.74965" transform="rotate(-90 236.058 701.998)" fill="white"/>
<circle cx="251.222" cy="701.998" r="1.74965" transform="rotate(-90 251.222 701.998)" fill="white"/>
<circle cx="266.386" cy="701.998" r="1.74965" transform="rotate(-90 266.386 701.998)" fill="white"/>
<circle cx="281.55" cy="701.998" r="1.74965" transform="rotate(-90 281.55 701.998)" fill="white"/>
<circle cx="296.713" cy="701.998" r="1.74965" transform="rotate(-90 296.713 701.998)" fill="white"/>
<circle cx="311.877" cy="701.998" r="1.74965" transform="rotate(-90 311.877 701.998)" fill="white"/>
<circle cx="145.077" cy="686.834" r="1.74965" transform="rotate(-90 145.077 686.834)" fill="white"/>
<circle cx="160.241" cy="686.834" r="1.74965" transform="rotate(-90 160.241 686.834)" fill="white"/>
<circle cx="175.404" cy="686.834" r="1.74965" transform="rotate(-90 175.404 686.834)" fill="white"/>
<circle cx="190.568" cy="686.834" r="1.74965" transform="rotate(-90 190.568 686.834)" fill="white"/>
<circle cx="205.731" cy="686.834" r="1.74965" transform="rotate(-90 205.731 686.834)" fill="white"/>
<circle cx="220.896" cy="686.834" r="1.74965" transform="rotate(-90 220.896 686.834)" fill="white"/>
<circle cx="236.058" cy="686.834" r="1.74965" transform="rotate(-90 236.058 686.834)" fill="white"/>
<circle cx="251.222" cy="686.834" r="1.74965" transform="rotate(-90 251.222 686.834)" fill="white"/>
<circle cx="266.386" cy="686.834" r="1.74965" transform="rotate(-90 266.386 686.834)" fill="white"/>
<circle cx="281.55" cy="686.834" r="1.74965" transform="rotate(-90 281.55 686.834)" fill="white"/>
<circle cx="296.713" cy="686.834" r="1.74965" transform="rotate(-90 296.713 686.834)" fill="white"/>
<circle cx="311.877" cy="686.834" r="1.74965" transform="rotate(-90 311.877 686.834)" fill="white"/>
<circle cx="145.077" cy="671.67" r="1.74965" transform="rotate(-90 145.077 671.67)" fill="white"/>
<circle cx="160.241" cy="671.67" r="1.74965" transform="rotate(-90 160.241 671.67)" fill="white"/>
<circle cx="175.404" cy="671.67" r="1.74965" transform="rotate(-90 175.404 671.67)" fill="white"/>
<circle cx="190.568" cy="671.67" r="1.74965" transform="rotate(-90 190.568 671.67)" fill="white"/>
<circle cx="205.731" cy="671.67" r="1.74965" transform="rotate(-90 205.731 671.67)" fill="white"/>
<circle cx="220.896" cy="671.67" r="1.74965" transform="rotate(-90 220.896 671.67)" fill="white"/>
<circle cx="236.058" cy="671.67" r="1.74965" transform="rotate(-90 236.058 671.67)" fill="white"/>
<circle cx="251.222" cy="671.67" r="1.74965" transform="rotate(-90 251.222 671.67)" fill="white"/>
<circle cx="266.386" cy="671.67" r="1.74965" transform="rotate(-90 266.386 671.67)" fill="white"/>
<circle cx="281.55" cy="671.67" r="1.74965" transform="rotate(-90 281.55 671.67)" fill="white"/>
<circle cx="296.713" cy="671.67" r="1.74965" transform="rotate(-90 296.713 671.67)" fill="white"/>
<circle cx="311.877" cy="671.67" r="1.74965" transform="rotate(-90 311.877 671.67)" fill="white"/>
<circle cx="145.077" cy="656.508" r="1.74965" transform="rotate(-90 145.077 656.508)" fill="white"/>
<circle cx="160.241" cy="656.508" r="1.74965" transform="rotate(-90 160.241 656.508)" fill="white"/>
<circle cx="175.404" cy="656.508" r="1.74965" transform="rotate(-90 175.404 656.508)" fill="white"/>
<circle cx="190.568" cy="656.508" r="1.74965" transform="rotate(-90 190.568 656.508)" fill="white"/>
<circle cx="205.731" cy="656.508" r="1.74965" transform="rotate(-90 205.731 656.508)" fill="white"/>
<circle cx="220.896" cy="656.508" r="1.74965" transform="rotate(-90 220.896 656.508)" fill="white"/>
<circle cx="236.058" cy="656.508" r="1.74965" transform="rotate(-90 236.058 656.508)" fill="white"/>
<circle cx="251.222" cy="656.508" r="1.74965" transform="rotate(-90 251.222 656.508)" fill="white"/>
<circle cx="266.386" cy="656.508" r="1.74965" transform="rotate(-90 266.386 656.508)" fill="white"/>
<circle cx="281.55" cy="656.508" r="1.74965" transform="rotate(-90 281.55 656.508)" fill="white"/>
<circle cx="296.713" cy="656.508" r="1.74965" transform="rotate(-90 296.713 656.508)" fill="white"/>
<circle cx="311.877" cy="656.508" r="1.74965" transform="rotate(-90 311.877 656.508)" fill="white"/>
<circle cx="145.077" cy="641.344" r="1.74965" transform="rotate(-90 145.077 641.344)" fill="white"/>
<circle cx="160.241" cy="641.344" r="1.74965" transform="rotate(-90 160.241 641.344)" fill="white"/>
<circle cx="175.404" cy="641.344" r="1.74965" transform="rotate(-90 175.404 641.344)" fill="white"/>
<circle cx="190.568" cy="641.344" r="1.74965" transform="rotate(-90 190.568 641.344)" fill="white"/>
<circle cx="205.731" cy="641.344" r="1.74965" transform="rotate(-90 205.731 641.344)" fill="white"/>
<circle cx="220.896" cy="641.344" r="1.74965" transform="rotate(-90 220.896 641.344)" fill="white"/>
<circle cx="236.058" cy="641.344" r="1.74965" transform="rotate(-90 236.058 641.344)" fill="white"/>
<circle cx="251.222" cy="641.344" r="1.74965" transform="rotate(-90 251.222 641.344)" fill="white"/>
<circle cx="266.386" cy="641.344" r="1.74965" transform="rotate(-90 266.386 641.344)" fill="white"/>
<circle cx="281.55" cy="641.344" r="1.74965" transform="rotate(-90 281.55 641.344)" fill="white"/>
<circle cx="296.713" cy="641.344" r="1.74965" transform="rotate(-90 296.713 641.344)" fill="white"/>
<circle cx="311.877" cy="641.344" r="1.74965" transform="rotate(-90 311.877 641.344)" fill="white"/>
<circle cx="145.077" cy="626.18" r="1.74965" transform="rotate(-90 145.077 626.18)" fill="white"/>
<circle cx="160.241" cy="626.18" r="1.74965" transform="rotate(-90 160.241 626.18)" fill="white"/>
<circle cx="175.404" cy="626.18" r="1.74965" transform="rotate(-90 175.404 626.18)" fill="white"/>
<circle cx="190.568" cy="626.18" r="1.74965" transform="rotate(-90 190.568 626.18)" fill="white"/>
<circle cx="205.731" cy="626.18" r="1.74965" transform="rotate(-90 205.731 626.18)" fill="white"/>
<circle cx="220.896" cy="626.18" r="1.74965" transform="rotate(-90 220.896 626.18)" fill="white"/>
<circle cx="236.058" cy="626.18" r="1.74965" transform="rotate(-90 236.058 626.18)" fill="white"/>
<circle cx="251.222" cy="626.18" r="1.74965" transform="rotate(-90 251.222 626.18)" fill="white"/>
<circle cx="266.386" cy="626.18" r="1.74965" transform="rotate(-90 266.386 626.18)" fill="white"/>
<circle cx="281.55" cy="626.18" r="1.74965" transform="rotate(-90 281.55 626.18)" fill="white"/>
<circle cx="296.713" cy="626.18" r="1.74965" transform="rotate(-90 296.713 626.18)" fill="white"/>
<circle cx="311.877" cy="626.18" r="1.74965" transform="rotate(-90 311.877 626.18)" fill="white"/>
<circle cx="145.077" cy="611.016" r="1.74965" transform="rotate(-90 145.077 611.016)" fill="white"/>
<circle cx="160.241" cy="611.016" r="1.74965" transform="rotate(-90 160.241 611.016)" fill="white"/>
<circle cx="175.404" cy="611.016" r="1.74965" transform="rotate(-90 175.404 611.016)" fill="white"/>
<circle cx="190.568" cy="611.016" r="1.74965" transform="rotate(-90 190.568 611.016)" fill="white"/>
<circle cx="205.731" cy="611.016" r="1.74965" transform="rotate(-90 205.731 611.016)" fill="white"/>
<circle cx="220.896" cy="611.016" r="1.74965" transform="rotate(-90 220.896 611.016)" fill="white"/>
<circle cx="236.058" cy="611.016" r="1.74965" transform="rotate(-90 236.058 611.016)" fill="white"/>
<circle cx="251.222" cy="611.016" r="1.74965" transform="rotate(-90 251.222 611.016)" fill="white"/>
<circle cx="266.386" cy="611.016" r="1.74965" transform="rotate(-90 266.386 611.016)" fill="white"/>
<circle cx="281.55" cy="611.016" r="1.74965" transform="rotate(-90 281.55 611.016)" fill="white"/>
<circle cx="296.713" cy="611.016" r="1.74965" transform="rotate(-90 296.713 611.016)" fill="white"/>
<circle cx="311.877" cy="611.016" r="1.74965" transform="rotate(-90 311.877 611.016)" fill="white"/>
<circle cx="145.077" cy="595.854" r="1.74965" transform="rotate(-90 145.077 595.854)" fill="white"/>
<circle cx="160.241" cy="595.854" r="1.74965" transform="rotate(-90 160.241 595.854)" fill="white"/>
<circle cx="175.404" cy="595.854" r="1.74965" transform="rotate(-90 175.404 595.854)" fill="white"/>
<circle cx="190.568" cy="595.854" r="1.74965" transform="rotate(-90 190.568 595.854)" fill="white"/>
<circle cx="205.731" cy="595.854" r="1.74965" transform="rotate(-90 205.731 595.854)" fill="white"/>
<circle cx="220.896" cy="595.854" r="1.74965" transform="rotate(-90 220.896 595.854)" fill="white"/>
<circle cx="236.058" cy="595.854" r="1.74965" transform="rotate(-90 236.058 595.854)" fill="white"/>
<circle cx="251.222" cy="595.854" r="1.74965" transform="rotate(-90 251.222 595.854)" fill="white"/>
<circle cx="266.386" cy="595.854" r="1.74965" transform="rotate(-90 266.386 595.854)" fill="white"/>
<circle cx="281.55" cy="595.854" r="1.74965" transform="rotate(-90 281.55 595.854)" fill="white"/>
<circle cx="296.713" cy="595.854" r="1.74965" transform="rotate(-90 296.713 595.854)" fill="white"/>
<circle cx="311.877" cy="595.854" r="1.74965" transform="rotate(-90 311.877 595.854)" fill="white"/>
<circle cx="145.077" cy="580.69" r="1.74965" transform="rotate(-90 145.077 580.69)" fill="white"/>
<circle cx="160.241" cy="580.69" r="1.74965" transform="rotate(-90 160.241 580.69)" fill="white"/>
<circle cx="175.404" cy="580.69" r="1.74965" transform="rotate(-90 175.404 580.69)" fill="white"/>
<circle cx="190.568" cy="580.69" r="1.74965" transform="rotate(-90 190.568 580.69)" fill="white"/>
<circle cx="205.731" cy="580.69" r="1.74965" transform="rotate(-90 205.731 580.69)" fill="white"/>
<circle cx="220.896" cy="580.69" r="1.74965" transform="rotate(-90 220.896 580.69)" fill="white"/>
<circle cx="236.058" cy="580.69" r="1.74965" transform="rotate(-90 236.058 580.69)" fill="white"/>
<circle cx="251.222" cy="580.69" r="1.74965" transform="rotate(-90 251.222 580.69)" fill="white"/>
<circle cx="266.386" cy="580.69" r="1.74965" transform="rotate(-90 266.386 580.69)" fill="white"/>
<circle cx="281.55" cy="580.69" r="1.74965" transform="rotate(-90 281.55 580.69)" fill="white"/>
<circle cx="296.713" cy="580.69" r="1.74965" transform="rotate(-90 296.713 580.69)" fill="white"/>
<circle cx="311.877" cy="580.69" r="1.74965" transform="rotate(-90 311.877 580.69)" fill="white"/>
</g>
</g>
</svg>
