<svg width="19" height="17" viewBox="0 0 19 17" fill="none" xmlns="http://www.w3.org/2000/svg">
<path d="M17.4792 15.0546V13.9287H14.6194V15.0546C14.6272 17.0465 17.4792 17.07 17.4792 15.0546Z" fill="black"/>
<path d="M4.36685 15.0546V13.9287H1.5188V15.0546C1.51489 17.07 4.36685 17.0465 4.36685 15.0546Z" fill="black"/>
<path d="M19 11.5837V7.63519C18.9961 6.25905 17.8995 5.53189 17.2759 5.45175L15.718 1.43086C15.4268 0.660699 14.7895 0.0058642 13.5854 0H11.3902H7.63714H5.40093C4.20268 0.0058642 3.56543 0.660699 3.26832 1.43086L1.71039 5.45175C1.0927 5.53189 -0.00195212 6.25905 2.61439e-06 7.63519V11.5837C2.61439e-06 12.2308 0.525826 12.7566 1.17284 12.7566H17.8272C18.4742 12.7566 19 12.2327 19 11.5837ZM3.18622 9.86162C3.18426 9.86162 3.18426 9.86162 3.18231 9.86162C3.18035 9.86162 3.18035 9.86162 3.1784 9.86162C2.45124 9.86162 1.86482 9.25566 1.86677 8.50897C1.86286 7.76029 2.44733 7.15432 3.17058 7.15432C3.17449 7.15432 3.1784 7.15432 3.18231 7.15432C3.18622 7.15432 3.19013 7.15432 3.19404 7.15432C3.91533 7.15432 4.4998 7.76029 4.49784 8.50897C4.4998 9.25566 3.91142 9.86162 3.18622 9.86162ZM9.5 5.41461H9.48632H4.61122C4.18117 5.41461 3.88992 4.97675 4.05803 4.57994L4.87901 2.63889C5.00216 2.332 5.24064 1.86677 5.7606 1.85895H13.2218C13.7339 1.86677 13.863 2.15412 14.1034 2.63889L14.9244 4.57994C15.0925 4.97675 14.8012 5.41461 14.3712 5.41461H9.5ZM15.7219 9.95936C15.72 9.95936 15.72 9.95936 15.718 9.95936C15.716 9.95936 15.7161 9.95936 15.7141 9.95936C14.983 9.95936 14.3947 9.35339 14.3908 8.60671C14.3947 7.85802 14.9791 7.25206 15.7082 7.25206C15.7121 7.25206 15.716 7.25206 15.72 7.25206C15.7239 7.25206 15.7278 7.25206 15.7317 7.25206C16.4472 7.25206 17.0316 7.85802 17.0355 8.60671C17.0296 9.35339 16.4413 9.95936 15.7219 9.95936Z" fill="black"/>
</svg>