<svg width="19" height="16" viewBox="0 0 19 16" fill="none" xmlns="http://www.w3.org/2000/svg">
<path d="M2.57236 8.3858V8.23145H0.385867C0.102904 8.23149 0 8.48871 0 8.77167V13.5562C0 13.8392 0.102904 14.1479 0.385867 14.1479H1.92928C2.16542 14.1273 2.38226 14.2791 2.44376 14.508L2.77817 15.9999L4.39874 14.2765C4.49633 14.1865 4.62636 14.14 4.75886 14.1479H8.18011C8.48611 14.1117 8.72348 13.8636 8.74603 13.5562V11.061H5.19618C3.7503 11.0067 2.59865 9.83247 2.57236 8.3858Z" fill="#7DBBB8"/>
<path d="M17.1062 0H5.19622C4.34733 0 3.60135 0.514473 3.60135 1.36336V8.38592C3.614 9.27006 4.31292 9.99152 5.19622 10.0322H10.3924C10.5249 10.0244 10.6549 10.0708 10.7525 10.1608L13.7879 13.4277L14.4824 10.3924C14.5329 10.1673 14.7413 10.0138 14.9712 10.0322H17.1062C17.9551 10.0322 18.521 9.2348 18.521 8.38592V1.36336C18.521 0.514473 17.9551 0 17.1062 0ZM5.89075 2.82957H12.0644C12.3486 2.82957 12.5789 3.0599 12.5789 3.34405C12.5789 3.62819 12.3486 3.85852 12.0644 3.85852H5.89075C5.6066 3.85852 5.37628 3.62819 5.37628 3.34405C5.37628 3.0599 5.6066 2.82957 5.89075 2.82957ZM16.1801 6.94535H5.8907C5.60656 6.94535 5.37623 6.71503 5.37623 6.43088C5.37623 6.14674 5.60656 5.91641 5.8907 5.91641H16.1801C16.4643 5.91641 16.6946 6.14674 16.6946 6.43088C16.6946 6.71503 16.4643 6.94535 16.1801 6.94535Z" fill="#7DBBB8"/>
</svg>
