<svg width="508" height="508" viewBox="0 0 508 508" fill="none" xmlns="http://www.w3.org/2000/svg">
<g clip-path="url(#clip0)">
<path d="M253.6 507.2C393.659 507.2 507.2 393.659 507.2 253.6C507.2 113.541 393.659 0 253.6 0C113.541 0 0 113.541 0 253.6C0 393.659 113.541 507.2 253.6 507.2Z" fill="#32BA7C"/>
<path d="M188.8 368L319.2 498.4C427.2 469.6 507.2 371.2 507.2 253.6C507.2 251.2 507.2 248.8 507.2 246.4L404.8 152L188.8 368Z" fill="#0AA06E"/>
<path d="M260 310.4C271.2 321.6 271.2 340.8 260 352L236.8 375.2C225.6 386.4 206.4 386.4 195.2 375.2L93.6 272.8C82.4 261.6 82.4 242.4 93.6 231.2L116.8 208C128 196.8 147.2 196.8 158.4 208L260 310.4Z" fill="white"/>
<path d="M348.8 133.6C360 122.4 379.2 122.4 390.4 133.6L413.6 156.8C424.8 168 424.8 187.2 413.6 198.4L237.6 373.6C226.4 384.8 207.2 384.8 196 373.6L172.8 350.4C161.6 339.2 161.6 320 172.8 308.8L348.8 133.6Z" fill="white"/>
</g>
<defs>
<clipPath id="clip0">
<rect width="507.2" height="507.2" fill="white"/>
</clipPath>
</defs>
</svg>
