<svg width="23" height="15" viewBox="0 0 23 15" fill="none" xmlns="http://www.w3.org/2000/svg">
<path d="M4.04297 8.08594H18.957V9.43359H4.04297V8.08594Z" fill="black"/>
<path d="M22.3262 4.04297H20.9785C20.6066 4.04297 20.3047 4.34484 20.3047 4.7168V10.1074C20.3047 10.4794 20.0028 10.7812 19.6309 10.7812H3.36914C2.99719 10.7812 2.69531 10.4794 2.69531 10.1074V4.7168C2.69531 4.34484 2.39344 4.04297 2.02148 4.04297H0.673828C0.301875 4.04297 0 4.34484 0 4.7168V12.8027C0 13.1747 0.301875 13.4766 0.673828 13.4766H2.69531V14.1504C2.69531 14.5225 2.99701 14.8242 3.36914 14.8242C3.74127 14.8242 4.04297 14.5225 4.04297 14.1504V13.4766H18.957V14.1504C18.957 14.5225 19.2587 14.8242 19.6309 14.8242C20.003 14.8242 20.3047 14.5225 20.3047 14.1504V13.4766H22.3262C22.6981 13.4766 23 13.1747 23 12.8027V4.7168C23 4.34484 22.6981 4.04297 22.3262 4.04297Z" fill="black"/>
<path d="M4.04297 4.7168V6.73828H10.8262V0H4.7168C3.60229 0 2.69531 0.906973 2.69531 2.02148V2.81121C3.47965 3.08883 4.04297 3.83857 4.04297 4.7168Z" fill="black"/>
<path d="M18.957 4.7168C18.957 3.83857 19.5204 3.08883 20.3047 2.81121V2.02148C20.3047 0.906973 19.3977 0 18.2832 0H12.1738V6.73828H18.957V4.7168Z" fill="black"/>
</svg>
