<svg width="19" height="19" viewBox="0 0 19 19" fill="none" xmlns="http://www.w3.org/2000/svg">
<path d="M9.77046 0.537109C14.7073 0.537109 18.702 4.53214 18.702 9.46868C18.702 14.4056 14.707 18.4002 9.77046 18.4002C4.83357 18.4002 0.838894 14.4052 0.838894 9.46867C0.838895 4.53179 4.83396 0.537108 9.77046 0.537109ZM9.77046 17.0047C13.936 17.0047 17.3065 13.6339 17.3065 9.46868C17.3065 5.30318 13.9357 1.93267 9.77046 1.93267C5.60497 1.93267 2.23445 5.30346 2.23445 9.46867C2.23445 13.6342 5.60528 17.0047 9.77046 17.0047Z" fill="#889DAB"/>
<path d="M9.77044 17.3495C14.1229 17.3495 17.6512 13.8211 17.6512 9.46868C17.6512 5.11624 14.1229 1.58789 9.77044 1.58789C5.418 1.58789 1.88965 5.11624 1.88965 9.46868C1.88965 13.8211 5.418 17.3495 9.77044 17.3495Z" fill="#889DAB"/>
<path d="M9.77048 8.01367C10.1559 8.01367 10.4683 8.32607 10.4683 8.71145V13.2049C10.4683 13.5903 10.1559 13.9027 9.77048 13.9027C9.3851 13.9027 9.0727 13.5902 9.0727 13.2049V8.71145C9.0727 8.32607 9.3851 8.01367 9.77048 8.01367Z" fill="white"/>
<path d="M9.77052 7.15939C9.25027 7.15939 8.82852 6.73764 8.82852 6.21739C8.82852 5.69714 9.25027 5.27539 9.77052 5.27539C10.2908 5.27539 10.7125 5.69714 10.7125 6.21739C10.7125 6.73764 10.2908 7.15939 9.77052 7.15939Z" fill="white"/>
</svg>
