<svg width="30" height="24" viewBox="0 0 26 25" fill="none" xmlns="http://www.w3.org/2000/svg">
<path d="M17.703 0.278809H8.433C4.167 0.278809 0.707001 3.73825 0.707001 8.00422V17.2747C0.707001 21.5407 4.167 25.0001 8.433 25.0001H17.703C21.969 25.0001 25.429 21.5407 25.429 17.2747V8.00422C25.429 3.73825 21.969 0.278809 17.703 0.278809ZM23.111 17.2747C23.111 20.2567 20.685 22.6825 17.703 22.6825H8.433C5.451 22.6825 3.02499 20.2567 3.02499 17.2747V8.00422C3.02499 5.02221 5.451 2.59643 8.433 2.59643H17.703C20.685 2.59643 23.111 5.02221 23.111 8.00422V17.2747Z" fill="#7DBBB8"/>
<path d="M13.068 6.45898C9.65499 6.45898 6.888 9.22623 6.888 12.6393C6.888 16.0524 9.65499 18.8196 13.068 18.8196C16.481 18.8196 19.248 16.0524 19.248 12.6393C19.248 9.22623 16.481 6.45898 13.068 6.45898ZM13.068 16.502C10.939 16.502 9.205 14.7684 9.205 12.6393C9.205 10.5086 10.939 8.77661 13.068 8.77661C15.197 8.77661 16.931 10.5086 16.931 12.6393C16.931 14.7684 15.197 16.502 13.068 16.502Z" fill="#7DBBB8"/>
<path d="M19.712 6.81942C20.167 6.81942 20.535 6.45071 20.535 5.99589C20.535 5.54107 20.167 5.17236 19.712 5.17236C19.257 5.17236 18.888 5.54107 18.888 5.99589C18.888 6.45071 19.257 6.81942 19.712 6.81942Z" fill="#7DBBB8"/>
</svg>