<svg width="25" height="25" viewBox="0 0 25 25" fill="none" xmlns="http://www.w3.org/2000/svg">
<path d="M5.5283 8.00391H0V24.9998H5.5283V8.00391Z" fill="#7DBBB8"/>
<path d="M20.5867 8.20322C20.528 8.18468 20.4723 8.16459 20.4105 8.1476C20.3364 8.1306 20.2622 8.1167 20.1865 8.10434C19.8929 8.04562 19.5716 8.00391 19.1946 8.00391C15.9715 8.00391 13.9274 10.3478 13.2537 11.2532V8.00391H7.72541V24.9998H13.2537V15.7293C13.2537 15.7293 17.4316 9.91054 19.1946 14.1842C19.1946 17.999 19.1946 24.9998 19.1946 24.9998H24.7213V13.5307C24.7213 10.9627 22.9615 8.8228 20.5867 8.20322Z" fill="#7DBBB8"/>
<path d="M2.70389 5.6866C4.19721 5.6866 5.40779 4.47602 5.40779 2.9827C5.40779 1.48938 4.19721 0.278809 2.70389 0.278809C1.21057 0.278809 0 1.48938 0 2.9827C0 4.47602 1.21057 5.6866 2.70389 5.6866Z" fill="#7DBBB8"/>
</svg>
