<svg width="29" height="20" viewBox="0 0 29 20" fill="none" xmlns="http://www.w3.org/2000/svg">
<path d="M27.7667 2.79871C26.9801 1.4631 26.1265 1.21743 24.3883 1.12401C22.652 1.01156 18.2858 0.96484 14.5032 0.96484C10.7134 0.96484 6.3454 1.01156 4.6109 1.12228C2.8764 1.21743 2.0209 1.46137 1.227 2.79871C0.416897 4.1326 0 6.4301 0 10.475C0 10.4785 0 10.4802 0 10.4802C0 10.4837 0 10.4854 0 10.4854V10.4889C0 14.5165 0.416897 16.8313 1.227 18.1513C2.0209 19.4869 2.8745 19.7291 4.6091 19.8416C6.3454 19.9385 10.7134 19.9956 14.5032 19.9956C18.2858 19.9956 22.652 19.9385 24.3902 19.8433C26.1283 19.7309 26.982 19.4887 27.7686 18.1531C28.586 16.833 28.9992 14.5182 28.9992 10.4906C28.9992 10.4906 28.9992 10.4854 28.9992 10.4819C28.9992 10.4819 28.9992 10.4785 28.9992 10.4768C28.9992 6.4301 28.586 4.1326 27.7667 2.79871ZM10.8747 15.6704V5.29001L19.937 10.4802L10.8747 15.6704Z" fill="#7DBBB8"/>
</svg>
