<svg width="18" height="18" viewBox="0 0 18 18" fill="none" xmlns="http://www.w3.org/2000/svg">
<path d="M13.6842 11.9069C13.0961 11.3264 12.362 11.3264 11.7777 11.9069C11.332 12.3489 10.8863 12.7909 10.4481 13.2403C10.3282 13.3639 10.2271 13.3902 10.081 13.3078C9.79259 13.1505 9.48546 13.0231 9.20829 12.8508C7.91609 12.038 6.83363 10.993 5.87478 9.81694C5.3991 9.23264 4.97586 8.60714 4.67996 7.90298C4.62003 7.76065 4.63127 7.66702 4.74738 7.55091C5.1931 7.12017 5.62758 6.6782 6.0658 6.23623C6.67632 5.62196 6.67632 4.90282 6.06206 4.28481C5.71372 3.93273 5.36539 3.58815 5.01706 3.23607C4.65749 2.8765 4.30166 2.51318 3.93835 2.15736C3.3503 1.58429 2.61618 1.58429 2.03188 2.1611C1.58242 2.60308 1.15168 3.05628 0.694729 3.49076C0.271485 3.89153 0.0579905 4.3822 0.0130442 4.95526C-0.0581206 5.8879 0.170356 6.76809 0.492471 7.62582C1.15168 9.40119 2.15548 10.9781 3.37277 12.4238C5.01706 14.379 6.97971 15.9259 9.27571 17.042C10.3095 17.5439 11.3807 17.9297 12.5455 17.9934C13.3471 18.0384 14.0438 17.8361 14.6018 17.2106C14.9839 16.7836 15.4146 16.3941 15.8191 15.9858C16.4184 15.379 16.4222 14.6449 15.8266 14.0456C15.115 13.3302 14.3996 12.6186 13.6842 11.9069Z" fill="#7DBBB8"/>
<path d="M12.9688 8.92183L14.3509 8.68586C14.1336 7.41613 13.5343 6.26626 12.6242 5.35235C11.6616 4.38975 10.4443 3.78298 9.1034 3.5957L8.90863 4.98529C9.94614 5.13137 10.89 5.59956 11.6354 6.34491C12.3395 7.04907 12.8002 7.94051 12.9688 8.92183Z" fill="#7DBBB8"/>
<path d="M15.1299 2.91401C13.5343 1.31842 11.5155 0.310878 9.28693 0L9.09216 1.38959C11.0174 1.65926 12.7628 2.53197 14.1411 3.90658C15.4483 5.21376 16.306 6.86554 16.6169 8.68211L17.999 8.44614C17.6357 6.34116 16.6431 4.43095 15.1299 2.91401Z" fill="#7DBBB8"/>
</svg>
