<svg width="20" height="20" viewBox="0 0 20 20" fill="none" xmlns="http://www.w3.org/2000/svg">
      <path d="M8.541 6.71289H5.81709C5.38409 6.71289 5.03186 7.06516 5.03186 7.49812V8.85059H9.32627V7.49812C9.32631 7.06516 8.97401 6.71289 8.541 6.71289Z" fill="black"/>
      <path d="M14.1829 6.71289H11.4589C11.0259 6.71289 10.6737 7.06516 10.6737 7.49812V8.85059H14.9681V7.49812C14.9681 7.06516 14.6158 6.71289 14.1829 6.71289Z" fill="black"/>
      <path d="M18.4771 10.1973H1.52293C0.683164 10.1973 0 10.8805 0 11.7202V14.8865H20V11.7202C20 10.8805 19.3168 10.1973 18.4771 10.1973Z" fill="black"/>
      <path d="M17.2211 1.87988H2.77892C1.6647 1.87988 0.758179 2.78641 0.758179 3.90062V8.9546C1.00185 8.88718 1.2581 8.85035 1.52294 8.85035H3.68435V7.49789C3.68435 6.32187 4.64107 5.36511 5.81712 5.36511H8.54103C9.10505 5.36511 9.61822 5.58558 10 5.94437C10.3818 5.58558 10.895 5.36511 11.459 5.36511H14.1829C15.3589 5.36511 16.3157 6.32191 16.3157 7.49789V8.85035H18.4771C18.7419 8.85035 18.9982 8.88714 19.2419 8.9546V3.90062C19.2419 2.78641 18.3353 1.87988 17.2211 1.87988Z" fill="black"/>
      <path d="M17.8943 16.2344V17.4464C17.8943 17.8185 18.196 18.1202 18.568 18.1202C18.9401 18.1202 19.2418 17.8185 19.2418 17.4464V16.2344H17.8943Z" fill="black"/>
      <path d="M0.758179 16.2344V17.4464C0.758179 17.8185 1.05986 18.1202 1.43193 18.1202C1.80404 18.1202 2.10568 17.8185 2.10568 17.4464V16.2344H0.758179Z" fill="black"/>
    </svg>