<svg width="20" height="20" viewBox="0 0 20 20" fill="none" xmlns="http://www.w3.org/2000/svg">
<rect x="0.5" y="0.5" width="19" height="19" rx="2.5" stroke="black"/>
<path d="M12.6906 8.59219C12.7123 8.57641 12.7325 8.55877 12.7512 8.53948L15.9639 5.29689L15.9267 5.40018C15.891 5.5017 15.8732 5.60868 15.8742 5.71632L15.8826 7.52655C15.8782 7.75958 16.0422 7.96191 16.2711 8.00597C16.5239 8.04386 16.7596 7.86961 16.7975 7.61674C16.8006 7.59631 16.8023 7.57569 16.8026 7.55503L16.7874 4.28155C16.7864 4.02587 16.5783 3.81945 16.3226 3.82049C16.3224 3.82049 16.3222 3.82049 16.3221 3.82049L13.0486 3.83564C12.7929 3.83718 12.5869 4.04568 12.5884 4.30136C12.5886 4.32148 12.59 4.34158 12.5927 4.36151C12.6389 4.58996 12.8427 4.75205 13.0757 4.74556L14.886 4.74046C14.9821 4.74007 15.0775 4.72472 15.1689 4.69496L15.3111 4.64029L12.1114 7.86972C11.9387 8.03153 11.91 8.2952 12.0439 8.49037C12.1943 8.69707 12.4839 8.74266 12.6906 8.59219Z" fill="black"/>
<path d="M7.66772 12.3112C7.64596 12.3269 7.62561 12.3445 7.6069 12.3637L4.3792 15.5914L4.41685 15.4882C4.45308 15.3869 4.47135 15.28 4.47086 15.1724L4.47086 13.3621C4.47627 13.1291 4.31324 12.926 4.08459 12.8809C3.83191 12.8418 3.59541 13.015 3.55634 13.2677C3.55319 13.2881 3.5514 13.3087 3.551 13.3294L3.551 16.6029C3.55086 16.8586 3.75801 17.0659 4.01369 17.0661C4.01386 17.0661 4.01404 17.0661 4.01421 17.0661L7.28772 17.0661C7.5434 17.0657 7.75037 16.8582 7.75003 16.6025C7.75 16.5824 7.74866 16.5623 7.74602 16.5423C7.7009 16.3137 7.49781 16.1506 7.26481 16.156L5.45455 16.1528C5.35845 16.1527 5.26291 16.1676 5.17139 16.197L5.029 16.251L8.24359 13.0364C8.41703 12.8754 8.44693 12.6118 8.31397 12.416C8.16445 12.2087 7.87513 12.1617 7.66772 12.3112Z" fill="black"/>
</svg>