<svg width="201" height="140" viewBox="0 0 201 140" fill="none" xmlns="http://www.w3.org/2000/svg">
<g opacity="0.4">
<ellipse opacity="0.4" cx="1.75031" cy="138.125" rx="1.74842" ry="1.75031" transform="rotate(-90 1.75031 138.125)" fill="#00807B"/>
<ellipse opacity="0.4" cx="16.9197" cy="138.125" rx="1.74842" ry="1.75031" transform="rotate(-90 16.9197 138.125)" fill="#00807B"/>
<ellipse opacity="0.4" cx="32.0892" cy="138.125" rx="1.74842" ry="1.75031" transform="rotate(-90 32.0892 138.125)" fill="#00807B"/>
<ellipse opacity="0.4" cx="47.2585" cy="138.125" rx="1.74842" ry="1.75031" transform="rotate(-90 47.2585 138.125)" fill="#00807B"/>
<ellipse opacity="0.4" cx="62.4279" cy="138.125" rx="1.74842" ry="1.75024" transform="rotate(-90 62.4279 138.125)" fill="#00807B"/>
<ellipse opacity="0.4" cx="77.5973" cy="138.125" rx="1.74842" ry="1.75027" transform="rotate(-90 77.5973 138.125)" fill="#00807B"/>
<ellipse opacity="0.4" cx="92.7667" cy="138.125" rx="1.74842" ry="1.75024" transform="rotate(-90 92.7667 138.125)" fill="#00807B"/>
<ellipse opacity="0.4" cx="107.936" cy="138.125" rx="1.74842" ry="1.75027" transform="rotate(-90 107.936 138.125)" fill="#00807B"/>
<ellipse opacity="0.4" cx="123.105" cy="138.125" rx="1.74842" ry="1.75021" transform="rotate(-90 123.105 138.125)" fill="#00807B"/>
<ellipse opacity="0.4" cx="138.275" cy="138.125" rx="1.74842" ry="1.75031" transform="rotate(-90 138.275 138.125)" fill="#00807B"/>
<ellipse opacity="0.4" cx="153.444" cy="138.125" rx="1.74842" ry="1.75031" transform="rotate(-90 153.444 138.125)" fill="#00807B"/>
<ellipse opacity="0.4" cx="168.614" cy="138.125" rx="1.74842" ry="1.75024" transform="rotate(-90 168.614 138.125)" fill="#00807B"/>
<ellipse opacity="0.4" cx="183.783" cy="138.125" rx="1.74842" ry="1.75031" transform="rotate(-90 183.783 138.125)" fill="#00807B"/>
<ellipse opacity="0.4" cx="198.952" cy="138.125" rx="1.74842" ry="1.75037" transform="rotate(-90 198.952 138.125)" fill="#00807B"/>
<ellipse opacity="0.4" cx="1.75031" cy="122.972" rx="1.74842" ry="1.75031" transform="rotate(-90 1.75031 122.972)" fill="#00807B"/>
<ellipse opacity="0.4" cx="16.9197" cy="122.972" rx="1.74842" ry="1.75031" transform="rotate(-90 16.9197 122.972)" fill="#00807B"/>
<ellipse opacity="0.4" cx="32.0892" cy="122.972" rx="1.74842" ry="1.75031" transform="rotate(-90 32.0892 122.972)" fill="#00807B"/>
<ellipse opacity="0.4" cx="47.2585" cy="122.972" rx="1.74842" ry="1.75031" transform="rotate(-90 47.2585 122.972)" fill="#00807B"/>
<ellipse opacity="0.4" cx="62.4279" cy="122.972" rx="1.74842" ry="1.75024" transform="rotate(-90 62.4279 122.972)" fill="#00807B"/>
<ellipse opacity="0.4" cx="77.5973" cy="122.972" rx="1.74842" ry="1.75027" transform="rotate(-90 77.5973 122.972)" fill="#00807B"/>
<ellipse opacity="0.4" cx="92.7667" cy="122.972" rx="1.74842" ry="1.75024" transform="rotate(-90 92.7667 122.972)" fill="#00807B"/>
<ellipse opacity="0.4" cx="107.936" cy="122.972" rx="1.74842" ry="1.75027" transform="rotate(-90 107.936 122.972)" fill="#00807B"/>
<ellipse opacity="0.4" cx="123.105" cy="122.972" rx="1.74842" ry="1.75021" transform="rotate(-90 123.105 122.972)" fill="#00807B"/>
<ellipse opacity="0.4" cx="138.275" cy="122.972" rx="1.74842" ry="1.75031" transform="rotate(-90 138.275 122.972)" fill="#00807B"/>
<ellipse opacity="0.4" cx="153.444" cy="122.972" rx="1.74842" ry="1.75031" transform="rotate(-90 153.444 122.972)" fill="#00807B"/>
<ellipse opacity="0.4" cx="168.614" cy="122.972" rx="1.74842" ry="1.75024" transform="rotate(-90 168.614 122.972)" fill="#00807B"/>
<ellipse opacity="0.4" cx="183.783" cy="122.972" rx="1.74842" ry="1.75031" transform="rotate(-90 183.783 122.972)" fill="#00807B"/>
<ellipse opacity="0.4" cx="198.952" cy="122.972" rx="1.74842" ry="1.75037" transform="rotate(-90 198.952 122.972)" fill="#00807B"/>
<ellipse opacity="0.4" cx="1.75031" cy="107.819" rx="1.74842" ry="1.75031" transform="rotate(-90 1.75031 107.819)" fill="#00807B"/>
<ellipse opacity="0.4" cx="16.9197" cy="107.819" rx="1.74842" ry="1.75031" transform="rotate(-90 16.9197 107.819)" fill="#00807B"/>
<ellipse opacity="0.4" cx="32.0892" cy="107.819" rx="1.74842" ry="1.75031" transform="rotate(-90 32.0892 107.819)" fill="#00807B"/>
<ellipse opacity="0.4" cx="47.2585" cy="107.819" rx="1.74842" ry="1.75031" transform="rotate(-90 47.2585 107.819)" fill="#00807B"/>
<ellipse opacity="0.4" cx="62.4279" cy="107.819" rx="1.74842" ry="1.75024" transform="rotate(-90 62.4279 107.819)" fill="#00807B"/>
<ellipse opacity="0.4" cx="77.5973" cy="107.819" rx="1.74842" ry="1.75027" transform="rotate(-90 77.5973 107.819)" fill="#00807B"/>
<ellipse opacity="0.4" cx="92.7667" cy="107.819" rx="1.74842" ry="1.75024" transform="rotate(-90 92.7667 107.819)" fill="#00807B"/>
<ellipse opacity="0.4" cx="107.936" cy="107.819" rx="1.74842" ry="1.75027" transform="rotate(-90 107.936 107.819)" fill="#00807B"/>
<ellipse opacity="0.4" cx="123.105" cy="107.819" rx="1.74842" ry="1.75021" transform="rotate(-90 123.105 107.819)" fill="#00807B"/>
<ellipse opacity="0.4" cx="138.275" cy="107.819" rx="1.74842" ry="1.75031" transform="rotate(-90 138.275 107.819)" fill="#00807B"/>
<ellipse opacity="0.4" cx="153.444" cy="107.819" rx="1.74842" ry="1.75031" transform="rotate(-90 153.444 107.819)" fill="#00807B"/>
<ellipse opacity="0.4" cx="168.614" cy="107.819" rx="1.74842" ry="1.75024" transform="rotate(-90 168.614 107.819)" fill="#00807B"/>
<ellipse opacity="0.4" cx="183.783" cy="107.819" rx="1.74842" ry="1.75031" transform="rotate(-90 183.783 107.819)" fill="#00807B"/>
<ellipse opacity="0.4" cx="198.952" cy="107.819" rx="1.74842" ry="1.75037" transform="rotate(-90 198.952 107.819)" fill="#00807B"/>
<ellipse opacity="0.4" cx="1.75031" cy="92.6661" rx="1.74842" ry="1.75031" transform="rotate(-90 1.75031 92.6661)" fill="#00807B"/>
<ellipse opacity="0.4" cx="16.9197" cy="92.6661" rx="1.74842" ry="1.75031" transform="rotate(-90 16.9197 92.6661)" fill="#00807B"/>
<ellipse opacity="0.4" cx="32.0892" cy="92.6661" rx="1.74842" ry="1.75031" transform="rotate(-90 32.0892 92.6661)" fill="#00807B"/>
<ellipse opacity="0.4" cx="47.2585" cy="92.6661" rx="1.74842" ry="1.75031" transform="rotate(-90 47.2585 92.6661)" fill="#00807B"/>
<ellipse opacity="0.4" cx="62.4279" cy="92.6661" rx="1.74842" ry="1.75024" transform="rotate(-90 62.4279 92.6661)" fill="#00807B"/>
<ellipse opacity="0.4" cx="77.5973" cy="92.6661" rx="1.74842" ry="1.75027" transform="rotate(-90 77.5973 92.6661)" fill="#00807B"/>
<ellipse opacity="0.4" cx="92.7667" cy="92.6661" rx="1.74842" ry="1.75024" transform="rotate(-90 92.7667 92.6661)" fill="#00807B"/>
<ellipse opacity="0.4" cx="107.936" cy="92.6661" rx="1.74842" ry="1.75027" transform="rotate(-90 107.936 92.6661)" fill="#00807B"/>
<ellipse opacity="0.4" cx="123.105" cy="92.6661" rx="1.74842" ry="1.75021" transform="rotate(-90 123.105 92.6661)" fill="#00807B"/>
<ellipse opacity="0.4" cx="138.275" cy="92.6661" rx="1.74842" ry="1.75031" transform="rotate(-90 138.275 92.6661)" fill="#00807B"/>
<ellipse opacity="0.4" cx="153.444" cy="92.6661" rx="1.74842" ry="1.75031" transform="rotate(-90 153.444 92.6661)" fill="#00807B"/>
<ellipse opacity="0.4" cx="168.614" cy="92.6661" rx="1.74842" ry="1.75024" transform="rotate(-90 168.614 92.6661)" fill="#00807B"/>
<ellipse opacity="0.4" cx="183.783" cy="92.6661" rx="1.74842" ry="1.75031" transform="rotate(-90 183.783 92.6661)" fill="#00807B"/>
<ellipse opacity="0.4" cx="198.952" cy="92.6661" rx="1.74842" ry="1.75037" transform="rotate(-90 198.952 92.6661)" fill="#00807B"/>
<ellipse opacity="0.4" cx="1.75031" cy="77.5133" rx="1.74842" ry="1.75031" transform="rotate(-90 1.75031 77.5133)" fill="#00807B"/>
<ellipse opacity="0.4" cx="16.9197" cy="77.5133" rx="1.74842" ry="1.75031" transform="rotate(-90 16.9197 77.5133)" fill="#00807B"/>
<ellipse opacity="0.4" cx="32.0892" cy="77.5133" rx="1.74842" ry="1.75031" transform="rotate(-90 32.0892 77.5133)" fill="#00807B"/>
<ellipse opacity="0.4" cx="47.2585" cy="77.5133" rx="1.74842" ry="1.75031" transform="rotate(-90 47.2585 77.5133)" fill="#00807B"/>
<ellipse opacity="0.4" cx="62.4279" cy="77.5133" rx="1.74842" ry="1.75024" transform="rotate(-90 62.4279 77.5133)" fill="#00807B"/>
<ellipse opacity="0.4" cx="77.5973" cy="77.5133" rx="1.74842" ry="1.75027" transform="rotate(-90 77.5973 77.5133)" fill="#00807B"/>
<ellipse opacity="0.4" cx="92.7667" cy="77.5133" rx="1.74842" ry="1.75024" transform="rotate(-90 92.7667 77.5133)" fill="#00807B"/>
<ellipse opacity="0.4" cx="107.936" cy="77.5133" rx="1.74842" ry="1.75027" transform="rotate(-90 107.936 77.5133)" fill="#00807B"/>
<ellipse opacity="0.4" cx="123.105" cy="77.5133" rx="1.74842" ry="1.75021" transform="rotate(-90 123.105 77.5133)" fill="#00807B"/>
<ellipse opacity="0.4" cx="138.275" cy="77.5133" rx="1.74842" ry="1.75031" transform="rotate(-90 138.275 77.5133)" fill="#00807B"/>
<ellipse opacity="0.4" cx="153.444" cy="77.5133" rx="1.74842" ry="1.75031" transform="rotate(-90 153.444 77.5133)" fill="#00807B"/>
<ellipse opacity="0.4" cx="168.614" cy="77.5133" rx="1.74842" ry="1.75024" transform="rotate(-90 168.614 77.5133)" fill="#00807B"/>
<ellipse opacity="0.4" cx="183.783" cy="77.5133" rx="1.74842" ry="1.75031" transform="rotate(-90 183.783 77.5133)" fill="#00807B"/>
<ellipse opacity="0.4" cx="198.952" cy="77.5133" rx="1.74842" ry="1.75037" transform="rotate(-90 198.952 77.5133)" fill="#00807B"/>
<ellipse opacity="0.4" cx="1.75031" cy="62.36" rx="1.74841" ry="1.75031" transform="rotate(-90 1.75031 62.36)" fill="#00807B"/>
<ellipse opacity="0.4" cx="16.9197" cy="62.36" rx="1.74841" ry="1.75031" transform="rotate(-90 16.9197 62.36)" fill="#00807B"/>
<ellipse opacity="0.4" cx="32.0892" cy="62.36" rx="1.74841" ry="1.75031" transform="rotate(-90 32.0892 62.36)" fill="#00807B"/>
<ellipse opacity="0.4" cx="47.2585" cy="62.36" rx="1.74841" ry="1.75031" transform="rotate(-90 47.2585 62.36)" fill="#00807B"/>
<ellipse opacity="0.4" cx="62.4279" cy="62.36" rx="1.74841" ry="1.75024" transform="rotate(-90 62.4279 62.36)" fill="#00807B"/>
<ellipse opacity="0.4" cx="77.5973" cy="62.36" rx="1.74841" ry="1.75027" transform="rotate(-90 77.5973 62.36)" fill="#00807B"/>
<ellipse opacity="0.4" cx="92.7667" cy="62.36" rx="1.74841" ry="1.75024" transform="rotate(-90 92.7667 62.36)" fill="#00807B"/>
<ellipse opacity="0.4" cx="107.936" cy="62.36" rx="1.74841" ry="1.75027" transform="rotate(-90 107.936 62.36)" fill="#00807B"/>
<ellipse opacity="0.4" cx="123.105" cy="62.36" rx="1.74841" ry="1.75021" transform="rotate(-90 123.105 62.36)" fill="#00807B"/>
<ellipse opacity="0.4" cx="138.275" cy="62.36" rx="1.74841" ry="1.75031" transform="rotate(-90 138.275 62.36)" fill="#00807B"/>
<ellipse opacity="0.4" cx="153.444" cy="62.36" rx="1.74841" ry="1.75031" transform="rotate(-90 153.444 62.36)" fill="#00807B"/>
<ellipse opacity="0.4" cx="168.614" cy="62.36" rx="1.74841" ry="1.75024" transform="rotate(-90 168.614 62.36)" fill="#00807B"/>
<ellipse opacity="0.4" cx="183.783" cy="62.36" rx="1.74841" ry="1.75031" transform="rotate(-90 183.783 62.36)" fill="#00807B"/>
<ellipse opacity="0.4" cx="198.952" cy="62.36" rx="1.74841" ry="1.75037" transform="rotate(-90 198.952 62.36)" fill="#00807B"/>
<ellipse opacity="0.4" cx="1.75031" cy="47.2076" rx="1.74842" ry="1.75031" transform="rotate(-90 1.75031 47.2076)" fill="#00807B"/>
<ellipse opacity="0.4" cx="16.9197" cy="47.2076" rx="1.74842" ry="1.75031" transform="rotate(-90 16.9197 47.2076)" fill="#00807B"/>
<ellipse opacity="0.4" cx="32.0892" cy="47.2076" rx="1.74842" ry="1.75031" transform="rotate(-90 32.0892 47.2076)" fill="#00807B"/>
<ellipse opacity="0.4" cx="47.2585" cy="47.2076" rx="1.74842" ry="1.75031" transform="rotate(-90 47.2585 47.2076)" fill="#00807B"/>
<ellipse opacity="0.4" cx="62.4279" cy="47.2076" rx="1.74842" ry="1.75024" transform="rotate(-90 62.4279 47.2076)" fill="#00807B"/>
<ellipse opacity="0.4" cx="77.5973" cy="47.2076" rx="1.74842" ry="1.75027" transform="rotate(-90 77.5973 47.2076)" fill="#00807B"/>
<ellipse opacity="0.4" cx="92.7667" cy="47.2076" rx="1.74842" ry="1.75024" transform="rotate(-90 92.7667 47.2076)" fill="#00807B"/>
<ellipse opacity="0.4" cx="107.936" cy="47.2076" rx="1.74842" ry="1.75027" transform="rotate(-90 107.936 47.2076)" fill="#00807B"/>
<ellipse opacity="0.4" cx="123.105" cy="47.2076" rx="1.74842" ry="1.75021" transform="rotate(-90 123.105 47.2076)" fill="#00807B"/>
<ellipse opacity="0.4" cx="138.275" cy="47.2076" rx="1.74842" ry="1.75031" transform="rotate(-90 138.275 47.2076)" fill="#00807B"/>
<ellipse opacity="0.4" cx="153.444" cy="47.2076" rx="1.74842" ry="1.75031" transform="rotate(-90 153.444 47.2076)" fill="#00807B"/>
<ellipse opacity="0.4" cx="168.614" cy="47.2076" rx="1.74842" ry="1.75024" transform="rotate(-90 168.614 47.2076)" fill="#00807B"/>
<ellipse opacity="0.4" cx="183.783" cy="47.2076" rx="1.74842" ry="1.75031" transform="rotate(-90 183.783 47.2076)" fill="#00807B"/>
<ellipse opacity="0.4" cx="198.952" cy="47.2076" rx="1.74842" ry="1.75037" transform="rotate(-90 198.952 47.2076)" fill="#00807B"/>
<ellipse opacity="0.4" cx="1.75031" cy="32.0543" rx="1.74842" ry="1.75031" transform="rotate(-90 1.75031 32.0543)" fill="#00807B"/>
<ellipse opacity="0.4" cx="16.9197" cy="32.0543" rx="1.74842" ry="1.75031" transform="rotate(-90 16.9197 32.0543)" fill="#00807B"/>
<ellipse opacity="0.4" cx="32.0892" cy="32.0543" rx="1.74842" ry="1.75031" transform="rotate(-90 32.0892 32.0543)" fill="#00807B"/>
<ellipse opacity="0.4" cx="47.2585" cy="32.0543" rx="1.74842" ry="1.75031" transform="rotate(-90 47.2585 32.0543)" fill="#00807B"/>
<ellipse opacity="0.4" cx="62.4279" cy="32.0543" rx="1.74842" ry="1.75024" transform="rotate(-90 62.4279 32.0543)" fill="#00807B"/>
<ellipse opacity="0.4" cx="77.5973" cy="32.0543" rx="1.74842" ry="1.75027" transform="rotate(-90 77.5973 32.0543)" fill="#00807B"/>
<ellipse opacity="0.4" cx="92.7667" cy="32.0543" rx="1.74842" ry="1.75024" transform="rotate(-90 92.7667 32.0543)" fill="#00807B"/>
<ellipse opacity="0.4" cx="107.936" cy="32.0543" rx="1.74842" ry="1.75027" transform="rotate(-90 107.936 32.0543)" fill="#00807B"/>
<ellipse opacity="0.4" cx="123.105" cy="32.0543" rx="1.74842" ry="1.75021" transform="rotate(-90 123.105 32.0543)" fill="#00807B"/>
<ellipse opacity="0.4" cx="138.275" cy="32.0543" rx="1.74842" ry="1.75031" transform="rotate(-90 138.275 32.0543)" fill="#00807B"/>
<ellipse opacity="0.4" cx="153.444" cy="32.0543" rx="1.74842" ry="1.75031" transform="rotate(-90 153.444 32.0543)" fill="#00807B"/>
<ellipse opacity="0.4" cx="168.614" cy="32.0543" rx="1.74842" ry="1.75024" transform="rotate(-90 168.614 32.0543)" fill="#00807B"/>
<ellipse opacity="0.4" cx="183.783" cy="32.0543" rx="1.74842" ry="1.75031" transform="rotate(-90 183.783 32.0543)" fill="#00807B"/>
<ellipse opacity="0.4" cx="198.952" cy="32.0543" rx="1.74842" ry="1.75037" transform="rotate(-90 198.952 32.0543)" fill="#00807B"/>
<ellipse opacity="0.4" cx="1.75031" cy="16.901" rx="1.74841" ry="1.75031" transform="rotate(-90 1.75031 16.901)" fill="#00807B"/>
<ellipse opacity="0.4" cx="16.9197" cy="16.901" rx="1.74841" ry="1.75031" transform="rotate(-90 16.9197 16.901)" fill="#00807B"/>
<ellipse opacity="0.4" cx="32.0892" cy="16.901" rx="1.74841" ry="1.75031" transform="rotate(-90 32.0892 16.901)" fill="#00807B"/>
<ellipse opacity="0.4" cx="47.2585" cy="16.901" rx="1.74841" ry="1.75031" transform="rotate(-90 47.2585 16.901)" fill="#00807B"/>
<ellipse opacity="0.4" cx="62.4279" cy="16.901" rx="1.74841" ry="1.75024" transform="rotate(-90 62.4279 16.901)" fill="#00807B"/>
<ellipse opacity="0.4" cx="77.5973" cy="16.901" rx="1.74841" ry="1.75027" transform="rotate(-90 77.5973 16.901)" fill="#00807B"/>
<ellipse opacity="0.4" cx="92.7667" cy="16.901" rx="1.74841" ry="1.75024" transform="rotate(-90 92.7667 16.901)" fill="#00807B"/>
<ellipse opacity="0.4" cx="107.936" cy="16.901" rx="1.74841" ry="1.75027" transform="rotate(-90 107.936 16.901)" fill="#00807B"/>
<ellipse opacity="0.4" cx="123.105" cy="16.901" rx="1.74841" ry="1.75021" transform="rotate(-90 123.105 16.901)" fill="#00807B"/>
<ellipse opacity="0.4" cx="138.275" cy="16.901" rx="1.74841" ry="1.75031" transform="rotate(-90 138.275 16.901)" fill="#00807B"/>
<ellipse opacity="0.4" cx="153.444" cy="16.901" rx="1.74841" ry="1.75031" transform="rotate(-90 153.444 16.901)" fill="#00807B"/>
<ellipse opacity="0.4" cx="168.614" cy="16.901" rx="1.74841" ry="1.75024" transform="rotate(-90 168.614 16.901)" fill="#00807B"/>
<ellipse opacity="0.4" cx="183.783" cy="16.901" rx="1.74841" ry="1.75031" transform="rotate(-90 183.783 16.901)" fill="#00807B"/>
<ellipse opacity="0.4" cx="198.952" cy="16.901" rx="1.74841" ry="1.75037" transform="rotate(-90 198.952 16.901)" fill="#00807B"/>
<ellipse opacity="0.4" cx="1.75031" cy="1.74866" rx="1.74842" ry="1.75031" transform="rotate(-90 1.75031 1.74866)" fill="#00807B"/>
<ellipse opacity="0.4" cx="16.9197" cy="1.74866" rx="1.74842" ry="1.75031" transform="rotate(-90 16.9197 1.74866)" fill="#00807B"/>
<ellipse opacity="0.4" cx="32.0892" cy="1.74866" rx="1.74842" ry="1.75031" transform="rotate(-90 32.0892 1.74866)" fill="#00807B"/>
<ellipse opacity="0.4" cx="47.2585" cy="1.74866" rx="1.74842" ry="1.75031" transform="rotate(-90 47.2585 1.74866)" fill="#00807B"/>
<ellipse opacity="0.4" cx="62.4279" cy="1.74866" rx="1.74842" ry="1.75024" transform="rotate(-90 62.4279 1.74866)" fill="#00807B"/>
<ellipse opacity="0.4" cx="77.5973" cy="1.74866" rx="1.74842" ry="1.75027" transform="rotate(-90 77.5973 1.74866)" fill="#00807B"/>
<ellipse opacity="0.4" cx="92.7667" cy="1.74866" rx="1.74842" ry="1.75024" transform="rotate(-90 92.7667 1.74866)" fill="#00807B"/>
<ellipse opacity="0.4" cx="107.936" cy="1.74866" rx="1.74842" ry="1.75027" transform="rotate(-90 107.936 1.74866)" fill="#00807B"/>
<ellipse opacity="0.4" cx="123.105" cy="1.74866" rx="1.74842" ry="1.75021" transform="rotate(-90 123.105 1.74866)" fill="#00807B"/>
<ellipse opacity="0.4" cx="138.275" cy="1.74866" rx="1.74842" ry="1.75031" transform="rotate(-90 138.275 1.74866)" fill="#00807B"/>
<ellipse opacity="0.4" cx="153.444" cy="1.74866" rx="1.74842" ry="1.75031" transform="rotate(-90 153.444 1.74866)" fill="#00807B"/>
<ellipse opacity="0.4" cx="168.614" cy="1.74866" rx="1.74842" ry="1.75024" transform="rotate(-90 168.614 1.74866)" fill="#00807B"/>
<ellipse opacity="0.4" cx="183.783" cy="1.74866" rx="1.74842" ry="1.75031" transform="rotate(-90 183.783 1.74866)" fill="#00807B"/>
<ellipse opacity="0.4" cx="198.952" cy="1.74866" rx="1.74842" ry="1.75037" transform="rotate(-90 198.952 1.74866)" fill="#00807B"/>
</g>
</svg>
