<svg width="18" height="18" viewBox="0 0 18 18" fill="none" xmlns="http://www.w3.org/2000/svg">
<path d="M15.3898 2.58675C13.6798 0.93375 11.4299 0 9.03364 0C2.15622 0 -2.16222 7.45125 1.27198 13.3785L0 18L4.75119 16.761C6.82117 17.8792 8.51689 17.7803 9.03814 17.8463C17.0128 17.8463 20.9825 8.19825 15.3786 2.616L15.3898 2.58675Z" fill="#ECEFF1"/>
<path d="M9.05013 16.3137L9.04563 16.3129H9.03363C6.64716 16.3129 5.12243 15.1827 4.97243 15.1174L2.15997 15.8487L2.91371 13.1149L2.73446 12.8337C1.99197 11.6517 1.59747 10.2904 1.59747 8.88865C1.59747 2.2939 9.65612 -1.00385 14.3196 3.6574C18.9718 8.2699 15.7055 16.3137 9.05013 16.3137Z" fill="#4CAF50"/>
<path d="M13.1301 10.7306L13.1233 10.7869C12.8976 10.6744 11.7981 10.1366 11.5934 10.0624C11.1336 9.89212 11.2634 10.0354 10.3806 11.0464C10.2494 11.1926 10.1189 11.2039 9.89613 11.1026C9.67114 10.9901 8.9489 10.7539 8.09391 9.98887C7.42791 9.39262 6.98092 8.66137 6.84892 8.43637C6.62917 8.05687 7.08892 8.00287 7.50741 7.21087C7.58241 7.05337 7.54416 6.92962 7.48866 6.81787C7.43241 6.70537 6.98467 5.60287 6.79717 5.16337C6.61717 4.72537 6.43193 4.78087 6.29318 4.78087C5.86118 4.74337 5.54544 4.74937 5.26719 5.03887C4.05671 6.36937 4.36195 7.74187 5.39769 9.20137C7.43316 11.8654 8.51765 12.3559 10.5006 13.0369C11.0361 13.2071 11.5244 13.1831 11.9106 13.1276C12.3411 13.0594 13.2358 12.5869 13.4226 12.0581C13.6138 11.5294 13.6138 11.0906 13.5576 10.9894C13.5021 10.8881 13.3551 10.8319 13.1301 10.7306V10.7306Z" fill="#FAFAFA"/>
</svg>